<svg width="133" height="102" fill="none" xmlns="http://www.w3.org/2000/svg"><path d="M121.192 8.793C128.875 16.952 133 26.103 133 40.936c0 26.102-18.328 49.497-44.98 61.064L81.36 91.723c24.877-13.454 29.74-30.912 31.68-41.92-4.006 2.073-9.25 2.797-14.39 2.32-13.456-1.246-24.063-12.291-24.063-26.02a26.1 26.1 0 0 1 7.647-18.458A26.11 26.11 0 0 1 100.694 0c8.003 0 15.657 3.654 20.498 8.793Zm-74.593 0c7.683 8.159 11.808 17.31 11.808 32.143 0 26.102-18.328 49.497-44.98 61.064L6.766 91.723c24.877-13.454 29.74-30.912 31.68-41.92-4.006 2.073-9.25 2.797-14.39 2.32C10.6 50.876 0 39.831 0 26.102A26.1 26.1 0 0 1 7.647 7.644 26.11 26.11 0 0 1 26.107 0c8.005 0 15.658 3.654 20.499 8.793h-.008Z" fill="#E6E6E6"/></svg>