<svg width="104" height="85" fill="none" xmlns="http://www.w3.org/2000/svg"><path d="M83.994 52.791C86.942-11.96 8.95-16.339.309 36.418 11.224-2.24 71.259-.422 73.989 45.97l10.005 6.822Z" fill="#0E00A7"/><path d="M73.989 45.97C70.35-12.537-14.371 3.296 2.129 55.974c4.77-3.578 7.266-5.345 12.734-7.731C7.131 8.22 71.26-1.786 70.35 44.15l3.639 1.82ZM78.903 64.987l-15.83-3.554C57.16 69.62 48.515 72.769 33.054 69.62c-.815 12.837 28.21 11.036 45.848-4.633Z" fill="#0C9AD7"/><path d="M13.953 74.168c-4.093-15.464 56.851-42.753 89.143 6.367-21.376-28.198-58.67-26.379-69.131-14.1-8.329 11.68 17.282 21.377 45.026-1.364-19.102 27.744-52.303 22.286-65.038 9.097Z" fill="#1804FF"/><path d="M103.096 80.08c-25.47-41.387-89.143-31.837-90.053-6.822-4.093-3.184-9.096-11.37-10.46-16.373 34.11-26.38 81.41-14.554 100.513 23.195Z" fill="#34C2FF"/></svg>